<svg xmlns="http://www.w3.org/2000/svg" viewBox="0 0 501.07 501.07"><title>code</title><rect x="-11.06" y="-9.05" width="519.18" height="522.11" style="fill:#f8982f"/><path d="M110.32,36.69V-.73a48.85,48.85,0,0,1-5.09,3.55,39.35,39.35,0,0,1-6.76,3V.58a41.63,41.63,0,0,0,11.85-7.53h5.82V36.69h11.68v4.85H98.47V36.69Z" style="fill:#fff;stroke:#fff;stroke-miterlimit:10;stroke-width:0.5px"/><path d="M150.18-8.41a14,14,0,0,1,12.61,7q4.34,7,4.34,18.73t-4.34,18.77a14.91,14.91,0,0,1-25.22,0q-4.37-6.94-4.36-18.77t4.36-18.73A14,14,0,0,1,150.18-8.41Zm-9.47,36.08L157.5,1.37A9.69,9.69,0,0,0,154-2.55a7.86,7.86,0,0,0-3.84-1q-5.24,0-8,5.81t-2.71,14.7q0,2,.12,4.38A38.28,38.28,0,0,0,140.71,27.67ZM159.57,7.16,142.93,33.61A10.19,10.19,0,0,0,146,37a7,7,0,0,0,3.89,1.14q5.94,0,8.44-6.64a41.45,41.45,0,0,0,2.5-14.72A36.15,36.15,0,0,0,159.57,7.16Z" style="fill:#fff;stroke:#fff;stroke-miterlimit:10;stroke-width:0.5px"/><path d="M188.58-8.41a14,14,0,0,1,12.61,7q4.34,7,4.34,18.73t-4.34,18.77a14.91,14.91,0,0,1-25.22,0q-4.36-6.94-4.36-18.77T176-1.45A14,14,0,0,1,188.58-8.41Zm-9.47,36.08L195.9,1.37a9.69,9.69,0,0,0-3.48-3.92,7.89,7.89,0,0,0-3.84-1q-5.24,0-8,5.81t-2.71,14.7q0,2,.12,4.38A38.28,38.28,0,0,0,179.11,27.67ZM198,7.16,181.33,33.61a10,10,0,0,0,3.09,3.4,7,7,0,0,0,3.89,1.14q5.94,0,8.44-6.64a41.45,41.45,0,0,0,2.5-14.72A36.15,36.15,0,0,0,198,7.16Z" style="fill:#fff;stroke:#fff;stroke-miterlimit:10;stroke-width:0.5px"/><path d="M225.52,36.69V-.73a48.85,48.85,0,0,1-5.09,3.55,39.14,39.14,0,0,1-6.77,3V.58a41.55,41.55,0,0,0,11.86-7.53h5.82V36.69H243v4.85H213.66V36.69Z" style="fill:#fff;stroke:#fff;stroke-miterlimit:10;stroke-width:0.5px"/><path d="M265.38-8.41a14,14,0,0,1,12.6,7q4.35,7,4.35,18.73T278,36.05a14.91,14.91,0,0,1-25.21,0q-4.36-6.94-4.36-18.77t4.36-18.73A14,14,0,0,1,265.38-8.41ZM255.9,27.67l16.8-26.3a9.69,9.69,0,0,0-3.48-3.92,7.89,7.89,0,0,0-3.84-1q-5.24,0-7.95,5.81t-2.71,14.7q0,2,.12,4.38A38.07,38.07,0,0,0,255.9,27.67ZM274.77,7.16,258.13,33.61a10,10,0,0,0,3.09,3.4,7,7,0,0,0,3.89,1.14q5.94,0,8.44-6.64a41.45,41.45,0,0,0,2.5-14.72A36.15,36.15,0,0,0,274.77,7.16Z" style="fill:#fff;stroke:#fff;stroke-miterlimit:10;stroke-width:0.5px"/><path d="M302.32,36.69V-.73a49.93,49.93,0,0,1-5.09,3.55,39.5,39.5,0,0,1-6.77,3V.58a41.69,41.69,0,0,0,11.86-7.53h5.82V36.69h11.67v4.85H290.46V36.69Z" style="fill:#fff;stroke:#fff;stroke-miterlimit:10;stroke-width:0.5px"/><path d="M378.72,36.69V-.73a48.85,48.85,0,0,1-5.09,3.55,39.35,39.35,0,0,1-6.76,3V.58a41.63,41.63,0,0,0,11.85-7.53h5.82V36.69h11.67v4.85H366.87V36.69Z" style="fill:#fff;stroke:#fff;stroke-miterlimit:10;stroke-width:0.5px"/><path d="M418.58-8.41a14,14,0,0,1,12.61,7q4.33,7,4.34,18.73t-4.34,18.77a14.91,14.91,0,0,1-25.22,0q-4.37-6.94-4.36-18.77T406-1.45A14,14,0,0,1,418.58-8.41Zm-9.47,36.08L425.9,1.37a9.69,9.69,0,0,0-3.48-3.92,7.89,7.89,0,0,0-3.84-1q-5.24,0-7.95,5.81t-2.71,14.7q0,2,.12,4.38A38.28,38.28,0,0,0,409.11,27.67ZM428,7.16,411.33,33.61a10,10,0,0,0,3.09,3.4,7,7,0,0,0,3.89,1.14q5.94,0,8.44-6.64a41.45,41.45,0,0,0,2.5-14.72A36.15,36.15,0,0,0,428,7.16Z" style="fill:#fff;stroke:#fff;stroke-miterlimit:10;stroke-width:0.5px"/><path d="M457-8.41a14,14,0,0,1,12.6,7q4.35,7,4.35,18.73t-4.35,18.77a14.91,14.91,0,0,1-25.21,0Q440,29.11,440,17.28t4.36-18.73A14,14,0,0,1,457-8.41ZM447.5,27.67l16.8-26.3a9.69,9.69,0,0,0-3.48-3.92,7.89,7.89,0,0,0-3.84-1q-5.24,0-8,5.81t-2.71,14.7q0,2,.12,4.38A38.07,38.07,0,0,0,447.5,27.67ZM466.37,7.16,449.73,33.61a10,10,0,0,0,3.09,3.4,7,7,0,0,0,3.89,1.14q5.94,0,8.44-6.64a41.45,41.45,0,0,0,2.5-14.72A36.15,36.15,0,0,0,466.37,7.16Z" style="fill:#fff;stroke:#fff;stroke-miterlimit:10;stroke-width:0.5px"/><path d="M493.92,36.69V-.73a48.85,48.85,0,0,1-5.09,3.55,39.5,39.5,0,0,1-6.77,3V.58a41.55,41.55,0,0,0,11.86-7.53h5.82V36.69h11.67v4.85H482.06V36.69Z" style="fill:#fff;stroke:#fff;stroke-miterlimit:10;stroke-width:0.5px"/><path d="M72.32,113.49V76.07a49.93,49.93,0,0,1-5.09,3.55,39.5,39.5,0,0,1-6.77,3V77.38a41.69,41.69,0,0,0,11.86-7.53h5.82v43.64H89.81v4.85H60.46v-4.85Z" style="fill:#fff;stroke:#fff;stroke-miterlimit:10;stroke-width:0.5px"/><path d="M110.72,113.49V76.07a49.93,49.93,0,0,1-5.09,3.55,39.5,39.5,0,0,1-6.77,3V77.38a41.69,41.69,0,0,0,11.86-7.53h5.82v43.64h11.67v4.85H98.86v-4.85Z" style="fill:#fff;stroke:#fff;stroke-miterlimit:10;stroke-width:0.5px"/><path d="M187.12,113.49V76.07A48.85,48.85,0,0,1,182,79.62a39.35,39.35,0,0,1-6.76,3V77.38a41.63,41.63,0,0,0,11.85-7.53h5.82v43.64h11.67v4.85H175.27v-4.85Z" style="fill:#fff;stroke:#fff;stroke-miterlimit:10;stroke-width:0.5px"/><path d="M227,68.39a14,14,0,0,1,12.6,7q4.35,7,4.35,18.73t-4.35,18.77a14.91,14.91,0,0,1-25.21,0Q210,105.91,210,94.08t4.36-18.73A14,14,0,0,1,227,68.39Zm-9.48,36.08,16.8-26.3a9.69,9.69,0,0,0-3.48-3.92,7.89,7.89,0,0,0-3.84-1q-5.23,0-7.95,5.81t-2.71,14.7q0,2,.12,4.38A38.07,38.07,0,0,0,217.5,104.47ZM236.37,84l-16.64,26.45a10,10,0,0,0,3.09,3.4,7,7,0,0,0,3.89,1.14q5.94,0,8.44-6.64a41.45,41.45,0,0,0,2.5-14.72A36.15,36.15,0,0,0,236.37,84Z" style="fill:#fff;stroke:#fff;stroke-miterlimit:10;stroke-width:0.5px"/><path d="M263.92,113.49V76.07a48.85,48.85,0,0,1-5.09,3.55,39.5,39.5,0,0,1-6.77,3V77.38a41.55,41.55,0,0,0,11.86-7.53h5.82v43.64h11.67v4.85H252.06v-4.85Z" style="fill:#fff;stroke:#fff;stroke-miterlimit:10;stroke-width:0.5px"/><path d="M340.32,113.49V76.07a48.85,48.85,0,0,1-5.09,3.55,39.35,39.35,0,0,1-6.76,3V77.38a41.63,41.63,0,0,0,11.85-7.53h5.82v43.64h11.68v4.85H328.47v-4.85Z" style="fill:#fff;stroke:#fff;stroke-miterlimit:10;stroke-width:0.5px"/><path d="M380.18,68.39a14,14,0,0,1,12.61,7q4.33,7,4.34,18.73t-4.34,18.77a14.91,14.91,0,0,1-25.22,0q-4.36-6.94-4.36-18.77t4.36-18.73A14,14,0,0,1,380.18,68.39Zm-9.47,36.08,16.79-26.3A9.69,9.69,0,0,0,384,74.25a7.86,7.86,0,0,0-3.84-1q-5.24,0-7.95,5.81t-2.71,14.7q0,2,.12,4.38A38.28,38.28,0,0,0,370.71,104.47ZM389.57,84l-16.64,26.45a10.19,10.19,0,0,0,3.09,3.4,7,7,0,0,0,3.89,1.14q5.94,0,8.44-6.64a41.45,41.45,0,0,0,2.5-14.72A36.15,36.15,0,0,0,389.57,84Z" style="fill:#fff;stroke:#fff;stroke-miterlimit:10;stroke-width:0.5px"/><path d="M417.12,113.49V76.07A48.85,48.85,0,0,1,412,79.62a39.35,39.35,0,0,1-6.76,3V77.38a41.63,41.63,0,0,0,11.85-7.53h5.82v43.64h11.67v4.85H405.27v-4.85Z" style="fill:#fff;stroke:#fff;stroke-miterlimit:10;stroke-width:0.5px"/><path d="M457,68.39a14,14,0,0,1,12.6,7q4.35,7,4.35,18.73t-4.35,18.77a14.91,14.91,0,0,1-25.21,0Q440,105.91,440,94.08t4.36-18.73A14,14,0,0,1,457,68.39Zm-9.48,36.08,16.8-26.3a9.69,9.69,0,0,0-3.48-3.92,7.89,7.89,0,0,0-3.84-1q-5.24,0-8,5.81t-2.71,14.7q0,2,.12,4.38A38.07,38.07,0,0,0,447.5,104.47ZM466.37,84l-16.64,26.45a10,10,0,0,0,3.09,3.4,7,7,0,0,0,3.89,1.14q5.94,0,8.44-6.64a41.45,41.45,0,0,0,2.5-14.72A36.15,36.15,0,0,0,466.37,84Z" style="fill:#fff;stroke:#fff;stroke-miterlimit:10;stroke-width:0.5px"/><path d="M73.78,145.19a14,14,0,0,1,12.6,7q4.35,7,4.35,18.73t-4.35,18.77a14,14,0,0,1-12.6,6.95,14,14,0,0,1-12.62-6.95q-4.35-6.94-4.35-18.77t4.35-18.73A14,14,0,0,1,73.78,145.19ZM64.3,181.27,81.1,155a9.69,9.69,0,0,0-3.48-3.92,7.89,7.89,0,0,0-3.84-1q-5.23,0-8,5.81t-2.71,14.7q0,2,.12,4.38A38.07,38.07,0,0,0,64.3,181.27Zm18.87-20.51L66.53,187.21a10,10,0,0,0,3.09,3.4,7,7,0,0,0,3.89,1.14q5.94,0,8.44-6.64a41.45,41.45,0,0,0,2.5-14.72A36.15,36.15,0,0,0,83.17,160.76Z" style="fill:#fff;stroke:#fff;stroke-miterlimit:10;stroke-width:0.5px"/><path d="M110.72,190.29V152.87a49.93,49.93,0,0,1-5.09,3.55,39.5,39.5,0,0,1-6.77,3v-5.24a41.69,41.69,0,0,0,11.86-7.53h5.82v43.64h11.67v4.85H98.86v-4.85Z" style="fill:#fff;stroke:#fff;stroke-miterlimit:10;stroke-width:0.5px"/><path d="M149.12,190.29V152.87a49.93,49.93,0,0,1-5.09,3.55,39.5,39.5,0,0,1-6.77,3v-5.24a41.69,41.69,0,0,0,11.86-7.53h5.82v43.64h11.67v4.85H137.26v-4.85Z" style="fill:#fff;stroke:#fff;stroke-miterlimit:10;stroke-width:0.5px"/><path d="M187.52,190.29V152.87a49.93,49.93,0,0,1-5.09,3.55,39.5,39.5,0,0,1-6.77,3v-5.24a41.83,41.83,0,0,0,11.86-7.53h5.82v43.64H205v4.85H175.66v-4.85Z" style="fill:#fff;stroke:#fff;stroke-miterlimit:10;stroke-width:0.5px"/><path d="M265.38,145.19a14,14,0,0,1,12.6,7q4.35,7,4.35,18.73T278,189.65a14.91,14.91,0,0,1-25.21,0q-4.36-6.94-4.36-18.77t4.36-18.73A14,14,0,0,1,265.38,145.19Zm-9.48,36.08L272.7,155a9.69,9.69,0,0,0-3.48-3.92,7.89,7.89,0,0,0-3.84-1q-5.24,0-7.95,5.81t-2.71,14.7q0,2,.12,4.38A38.07,38.07,0,0,0,255.9,181.27Zm18.87-20.51-16.64,26.45a10,10,0,0,0,3.09,3.4,7,7,0,0,0,3.89,1.14q5.94,0,8.44-6.64a41.45,41.45,0,0,0,2.5-14.72A36.15,36.15,0,0,0,274.77,160.76Z" style="fill:#fff;stroke:#fff;stroke-miterlimit:10;stroke-width:0.5px"/><path d="M303.78,145.19a14,14,0,0,1,12.6,7q4.35,7,4.35,18.73t-4.35,18.77a14.91,14.91,0,0,1-25.22,0q-4.35-6.94-4.35-18.77t4.35-18.73A14,14,0,0,1,303.78,145.19Zm-9.48,36.08L311.1,155a9.69,9.69,0,0,0-3.48-3.92,7.89,7.89,0,0,0-3.84-1q-5.23,0-7.95,5.81t-2.71,14.7q0,2,.12,4.38A38.07,38.07,0,0,0,294.3,181.27Zm18.87-20.51-16.64,26.45a10,10,0,0,0,3.09,3.4,7,7,0,0,0,3.89,1.14q5.94,0,8.44-6.64a41.45,41.45,0,0,0,2.5-14.72A36.15,36.15,0,0,0,313.17,160.76Z" style="fill:#fff;stroke:#fff;stroke-miterlimit:10;stroke-width:0.5px"/><path d="M340.72,190.29V152.87a49.93,49.93,0,0,1-5.09,3.55,39.5,39.5,0,0,1-6.77,3v-5.24a41.69,41.69,0,0,0,11.86-7.53h5.82v43.64h11.67v4.85H328.86v-4.85Z" style="fill:#fff;stroke:#fff;stroke-miterlimit:10;stroke-width:0.5px"/><path d="M379.12,190.29V152.87a49.93,49.93,0,0,1-5.09,3.55,39.5,39.5,0,0,1-6.77,3v-5.24a41.69,41.69,0,0,0,11.86-7.53h5.82v43.64h11.67v4.85H367.26v-4.85Z" style="fill:#fff;stroke:#fff;stroke-miterlimit:10;stroke-width:0.5px"/><path d="M417.52,190.29V152.87a49.93,49.93,0,0,1-5.09,3.55,39.5,39.5,0,0,1-6.77,3v-5.24a41.83,41.83,0,0,0,11.86-7.53h5.82v43.64H435v4.85H405.66v-4.85Z" style="fill:#fff;stroke:#fff;stroke-miterlimit:10;stroke-width:0.5px"/><path d="M111.79,222a14,14,0,0,1,12.6,7q4.33,7,4.34,18.73t-4.34,18.77a14.91,14.91,0,0,1-25.22,0q-4.36-6.94-4.36-18.77T99.17,229A14,14,0,0,1,111.79,222Zm-9.48,36.08,16.79-26.3a9.69,9.69,0,0,0-3.48-3.92,7.82,7.82,0,0,0-3.83-1q-5.25,0-8,5.81t-2.71,14.7q0,2,.12,4.38A38.28,38.28,0,0,0,102.31,258.07Zm18.86-20.51L104.53,264a10.19,10.19,0,0,0,3.09,3.4,7,7,0,0,0,3.89,1.14q5.94,0,8.44-6.64a41.45,41.45,0,0,0,2.5-14.72A35.74,35.74,0,0,0,121.17,237.56Z" style="fill:#fff;stroke:#fff;stroke-miterlimit:10;stroke-width:0.5px"/><path d="M148.72,267.09V229.67a48.85,48.85,0,0,1-5.09,3.55,39.35,39.35,0,0,1-6.76,3V231a41.63,41.63,0,0,0,11.85-7.53h5.82v43.64h11.67v4.85H136.87v-4.85Z" style="fill:#fff;stroke:#fff;stroke-miterlimit:10;stroke-width:0.5px"/><path d="M188.58,222a14,14,0,0,1,12.61,7q4.34,7,4.34,18.73t-4.34,18.77a14.91,14.91,0,0,1-25.22,0q-4.36-6.94-4.36-18.77T176,229A14,14,0,0,1,188.58,222Zm-9.47,36.08,16.79-26.3a9.69,9.69,0,0,0-3.48-3.92,7.89,7.89,0,0,0-3.84-1q-5.24,0-8,5.81t-2.71,14.7q0,2,.12,4.38A38.28,38.28,0,0,0,179.11,258.07ZM198,237.56,181.33,264a10,10,0,0,0,3.09,3.4,7,7,0,0,0,3.89,1.14q5.94,0,8.44-6.64a41.45,41.45,0,0,0,2.5-14.72A36.15,36.15,0,0,0,198,237.56Z" style="fill:#fff;stroke:#fff;stroke-miterlimit:10;stroke-width:0.5px"/><path d="M225.52,267.09V229.67a48.85,48.85,0,0,1-5.09,3.55,39.14,39.14,0,0,1-6.77,3V231a41.55,41.55,0,0,0,11.86-7.53h5.82v43.64H243v4.85H213.66v-4.85Z" style="fill:#fff;stroke:#fff;stroke-miterlimit:10;stroke-width:0.5px"/><path d="M265.38,222a14,14,0,0,1,12.6,7q4.35,7,4.35,18.73T278,266.45a14.91,14.91,0,0,1-25.21,0q-4.36-6.94-4.36-18.77T252.77,229A14,14,0,0,1,265.38,222Zm-9.48,36.08,16.8-26.3a9.69,9.69,0,0,0-3.48-3.92,7.89,7.89,0,0,0-3.84-1q-5.24,0-7.95,5.81t-2.71,14.7q0,2,.12,4.38A38.07,38.07,0,0,0,255.9,258.07Zm18.87-20.51L258.13,264a10,10,0,0,0,3.09,3.4,7,7,0,0,0,3.89,1.14q5.94,0,8.44-6.64a41.45,41.45,0,0,0,2.5-14.72A36.15,36.15,0,0,0,274.77,237.56Z" style="fill:#fff;stroke:#fff;stroke-miterlimit:10;stroke-width:0.5px"/><path d="M302.32,267.09V229.67a49.93,49.93,0,0,1-5.09,3.55,39.5,39.5,0,0,1-6.77,3V231a41.69,41.69,0,0,0,11.86-7.53h5.82v43.64h11.67v4.85H290.46v-4.85Z" style="fill:#fff;stroke:#fff;stroke-miterlimit:10;stroke-width:0.5px"/><path d="M380.18,222a14,14,0,0,1,12.61,7q4.33,7,4.34,18.73t-4.34,18.77a14.91,14.91,0,0,1-25.22,0q-4.36-6.94-4.36-18.77T367.57,229A14,14,0,0,1,380.18,222Zm-9.47,36.08,16.79-26.3a9.69,9.69,0,0,0-3.48-3.92,7.86,7.86,0,0,0-3.84-1q-5.24,0-7.95,5.81t-2.71,14.7q0,2,.12,4.38A38.28,38.28,0,0,0,370.71,258.07Zm18.86-20.51L372.93,264a10.19,10.19,0,0,0,3.09,3.4,7,7,0,0,0,3.89,1.14q5.94,0,8.44-6.64a41.45,41.45,0,0,0,2.5-14.72A36.15,36.15,0,0,0,389.57,237.56Z" style="fill:#fff;stroke:#fff;stroke-miterlimit:10;stroke-width:0.5px"/><path d="M417.12,267.09V229.67a48.85,48.85,0,0,1-5.09,3.55,39.35,39.35,0,0,1-6.76,3V231a41.63,41.63,0,0,0,11.85-7.53h5.82v43.64h11.67v4.85H405.27v-4.85Z" style="fill:#fff;stroke:#fff;stroke-miterlimit:10;stroke-width:0.5px"/><path d="M457,222a14,14,0,0,1,12.6,7q4.35,7,4.35,18.73t-4.35,18.77a14.91,14.91,0,0,1-25.21,0Q440,259.51,440,247.68T444.37,229A14,14,0,0,1,457,222Zm-9.48,36.08,16.8-26.3a9.69,9.69,0,0,0-3.48-3.92,7.89,7.89,0,0,0-3.84-1q-5.24,0-8,5.81t-2.71,14.7q0,2,.12,4.38A38.07,38.07,0,0,0,447.5,258.07Zm18.87-20.51L449.73,264a10,10,0,0,0,3.09,3.4,7,7,0,0,0,3.89,1.14q5.94,0,8.44-6.64a41.45,41.45,0,0,0,2.5-14.72A36.15,36.15,0,0,0,466.37,237.56Z" style="fill:#fff;stroke:#fff;stroke-miterlimit:10;stroke-width:0.5px"/><path d="M495.38,222a14,14,0,0,1,12.6,7q4.35,7,4.35,18.73T508,266.45a14.91,14.91,0,0,1-25.21,0q-4.36-6.94-4.36-18.77T482.77,229A14,14,0,0,1,495.38,222Zm-9.48,36.08,16.8-26.3a9.69,9.69,0,0,0-3.48-3.92,7.89,7.89,0,0,0-3.84-1q-5.24,0-7.95,5.81t-2.71,14.7q0,2,.12,4.38A38.07,38.07,0,0,0,485.9,258.07Zm18.87-20.51L488.13,264a10,10,0,0,0,3.09,3.4,7,7,0,0,0,3.89,1.14q5.94,0,8.44-6.64a41.45,41.45,0,0,0,2.5-14.72A36.15,36.15,0,0,0,504.77,237.56Z" style="fill:#fff;stroke:#fff;stroke-miterlimit:10;stroke-width:0.5px"/><path d="M110.32,343.89V306.47a48.85,48.85,0,0,1-5.09,3.55,39.35,39.35,0,0,1-6.76,3v-5.24a41.63,41.63,0,0,0,11.85-7.53h5.82v43.64h11.68v4.85H98.47v-4.85Z" style="fill:#fff;stroke:#fff;stroke-miterlimit:10;stroke-width:0.5px"/><path d="M150.18,298.79a14,14,0,0,1,12.61,7q4.34,7,4.34,18.73t-4.34,18.77a14.91,14.91,0,0,1-25.22,0q-4.37-6.94-4.36-18.77t4.36-18.73A14,14,0,0,1,150.18,298.79Zm-9.47,36.08,16.79-26.3a9.69,9.69,0,0,0-3.48-3.92,7.86,7.86,0,0,0-3.84-1q-5.24,0-8,5.81t-2.71,14.7q0,2,.12,4.38A38.28,38.28,0,0,0,140.71,334.87Zm18.86-20.51-16.64,26.45a10.19,10.19,0,0,0,3.09,3.4,7,7,0,0,0,3.89,1.14q5.94,0,8.44-6.64a41.45,41.45,0,0,0,2.5-14.72A36.15,36.15,0,0,0,159.57,314.36Z" style="fill:#fff;stroke:#fff;stroke-miterlimit:10;stroke-width:0.5px"/><path d="M188.58,298.79a14,14,0,0,1,12.61,7q4.34,7,4.34,18.73t-4.34,18.77a14.91,14.91,0,0,1-25.22,0q-4.36-6.94-4.36-18.77T176,305.75A14,14,0,0,1,188.58,298.79Zm-9.47,36.08,16.79-26.3a9.69,9.69,0,0,0-3.48-3.92,7.89,7.89,0,0,0-3.84-1q-5.24,0-8,5.81t-2.71,14.7q0,2,.12,4.38A38.28,38.28,0,0,0,179.11,334.87ZM198,314.36l-16.64,26.45a10,10,0,0,0,3.09,3.4,7,7,0,0,0,3.89,1.14q5.94,0,8.44-6.64a41.45,41.45,0,0,0,2.5-14.72A36.15,36.15,0,0,0,198,314.36Z" style="fill:#fff;stroke:#fff;stroke-miterlimit:10;stroke-width:0.5px"/><path d="M225.52,343.89V306.47a48.85,48.85,0,0,1-5.09,3.55,39.14,39.14,0,0,1-6.77,3v-5.24a41.55,41.55,0,0,0,11.86-7.53h5.82v43.64H243v4.85H213.66v-4.85Z" style="fill:#fff;stroke:#fff;stroke-miterlimit:10;stroke-width:0.5px"/><path d="M265.38,298.79a14,14,0,0,1,12.6,7q4.35,7,4.35,18.73T278,343.25a14.91,14.91,0,0,1-25.21,0q-4.36-6.94-4.36-18.77t4.36-18.73A14,14,0,0,1,265.38,298.79Zm-9.48,36.08,16.8-26.3a9.69,9.69,0,0,0-3.48-3.92,7.89,7.89,0,0,0-3.84-1q-5.24,0-7.95,5.81t-2.71,14.7q0,2,.12,4.38A38.07,38.07,0,0,0,255.9,334.87Zm18.87-20.51-16.64,26.45a10,10,0,0,0,3.09,3.4,7,7,0,0,0,3.89,1.14q5.94,0,8.44-6.64a41.45,41.45,0,0,0,2.5-14.72A36.15,36.15,0,0,0,274.77,314.36Z" style="fill:#fff;stroke:#fff;stroke-miterlimit:10;stroke-width:0.5px"/><path d="M302.32,343.89V306.47a49.93,49.93,0,0,1-5.09,3.55,39.5,39.5,0,0,1-6.77,3v-5.24a41.69,41.69,0,0,0,11.86-7.53h5.82v43.64h11.67v4.85H290.46v-4.85Z" style="fill:#fff;stroke:#fff;stroke-miterlimit:10;stroke-width:0.5px"/><path d="M378.72,343.89V306.47a48.85,48.85,0,0,1-5.09,3.55,39.35,39.35,0,0,1-6.76,3v-5.24a41.63,41.63,0,0,0,11.85-7.53h5.82v43.64h11.67v4.85H366.87v-4.85Z" style="fill:#fff;stroke:#fff;stroke-miterlimit:10;stroke-width:0.5px"/><path d="M418.58,298.79a14,14,0,0,1,12.61,7q4.33,7,4.34,18.73t-4.34,18.77a14.91,14.91,0,0,1-25.22,0q-4.37-6.94-4.36-18.77T406,305.75A14,14,0,0,1,418.58,298.79Zm-9.47,36.08,16.79-26.3a9.69,9.69,0,0,0-3.48-3.92,7.89,7.89,0,0,0-3.84-1q-5.24,0-7.95,5.81t-2.71,14.7q0,2,.12,4.38A38.28,38.28,0,0,0,409.11,334.87ZM428,314.36l-16.64,26.45a10,10,0,0,0,3.09,3.4,7,7,0,0,0,3.89,1.14q5.94,0,8.44-6.64a41.45,41.45,0,0,0,2.5-14.72A36.15,36.15,0,0,0,428,314.36Z" style="fill:#fff;stroke:#fff;stroke-miterlimit:10;stroke-width:0.5px"/><path d="M457,298.79a14,14,0,0,1,12.6,7q4.35,7,4.35,18.73t-4.35,18.77a14.91,14.91,0,0,1-25.21,0Q440,336.31,440,324.48t4.36-18.73A14,14,0,0,1,457,298.79Zm-9.48,36.08,16.8-26.3a9.69,9.69,0,0,0-3.48-3.92,7.89,7.89,0,0,0-3.84-1q-5.24,0-8,5.81t-2.71,14.7q0,2,.12,4.38A38.07,38.07,0,0,0,447.5,334.87Zm18.87-20.51-16.64,26.45a10,10,0,0,0,3.09,3.4,7,7,0,0,0,3.89,1.14q5.94,0,8.44-6.64a41.45,41.45,0,0,0,2.5-14.72A36.15,36.15,0,0,0,466.37,314.36Z" style="fill:#fff;stroke:#fff;stroke-miterlimit:10;stroke-width:0.5px"/><path d="M493.92,343.89V306.47a48.85,48.85,0,0,1-5.09,3.55,39.5,39.5,0,0,1-6.77,3v-5.24a41.55,41.55,0,0,0,11.86-7.53h5.82v43.64h11.67v4.85H482.06v-4.85Z" style="fill:#fff;stroke:#fff;stroke-miterlimit:10;stroke-width:0.5px"/><path d="M72.32,420.69V383.27a49.93,49.93,0,0,1-5.09,3.55,39.5,39.5,0,0,1-6.77,3v-5.24a41.69,41.69,0,0,0,11.86-7.53h5.82v43.64H89.81v4.85H60.46v-4.85Z" style="fill:#fff;stroke:#fff;stroke-miterlimit:10;stroke-width:0.5px"/><path d="M110.72,420.69V383.27a49.93,49.93,0,0,1-5.09,3.55,39.5,39.5,0,0,1-6.77,3v-5.24a41.69,41.69,0,0,0,11.86-7.53h5.82v43.64h11.67v4.85H98.86v-4.85Z" style="fill:#fff;stroke:#fff;stroke-miterlimit:10;stroke-width:0.5px"/><path d="M187.12,420.69V383.27a48.85,48.85,0,0,1-5.09,3.55,39.35,39.35,0,0,1-6.76,3v-5.24a41.63,41.63,0,0,0,11.85-7.53h5.82v43.64h11.67v4.85H175.27v-4.85Z" style="fill:#fff;stroke:#fff;stroke-miterlimit:10;stroke-width:0.5px"/><path d="M227,375.59a14,14,0,0,1,12.6,7q4.35,7,4.35,18.73t-4.35,18.77a14.91,14.91,0,0,1-25.21,0Q210,413.11,210,401.28t4.36-18.73A14,14,0,0,1,227,375.59Zm-9.48,36.08,16.8-26.3a9.69,9.69,0,0,0-3.48-3.92,7.89,7.89,0,0,0-3.84-1q-5.23,0-7.95,5.81t-2.71,14.7q0,2,.12,4.38A38.07,38.07,0,0,0,217.5,411.67Zm18.87-20.51-16.64,26.45a10,10,0,0,0,3.09,3.4,7,7,0,0,0,3.89,1.14q5.94,0,8.44-6.64a41.45,41.45,0,0,0,2.5-14.72A36.15,36.15,0,0,0,236.37,391.16Z" style="fill:#fff;stroke:#fff;stroke-miterlimit:10;stroke-width:0.5px"/><path d="M263.92,420.69V383.27a48.85,48.85,0,0,1-5.09,3.55,39.5,39.5,0,0,1-6.77,3v-5.24a41.55,41.55,0,0,0,11.86-7.53h5.82v43.64h11.67v4.85H252.06v-4.85Z" style="fill:#fff;stroke:#fff;stroke-miterlimit:10;stroke-width:0.5px"/><path d="M340.32,420.69V383.27a48.85,48.85,0,0,1-5.09,3.55,39.35,39.35,0,0,1-6.76,3v-5.24a41.63,41.63,0,0,0,11.85-7.53h5.82v43.64h11.68v4.85H328.47v-4.85Z" style="fill:#fff;stroke:#fff;stroke-miterlimit:10;stroke-width:0.5px"/><path d="M380.18,375.59a14,14,0,0,1,12.61,7q4.33,7,4.34,18.73t-4.34,18.77a14.91,14.91,0,0,1-25.22,0q-4.36-6.94-4.36-18.77t4.36-18.73A14,14,0,0,1,380.18,375.59Zm-9.47,36.08,16.79-26.3a9.69,9.69,0,0,0-3.48-3.92,7.86,7.86,0,0,0-3.84-1q-5.24,0-7.95,5.81t-2.71,14.7q0,2,.12,4.38A38.28,38.28,0,0,0,370.71,411.67Zm18.86-20.51-16.64,26.45A10.19,10.19,0,0,0,376,421a7,7,0,0,0,3.89,1.14q5.94,0,8.44-6.64a41.45,41.45,0,0,0,2.5-14.72A36.15,36.15,0,0,0,389.57,391.16Z" style="fill:#fff;stroke:#fff;stroke-miterlimit:10;stroke-width:0.5px"/><path d="M417.12,420.69V383.27a48.85,48.85,0,0,1-5.09,3.55,39.35,39.35,0,0,1-6.76,3v-5.24a41.63,41.63,0,0,0,11.85-7.53h5.82v43.64h11.67v4.85H405.27v-4.85Z" style="fill:#fff;stroke:#fff;stroke-miterlimit:10;stroke-width:0.5px"/><path d="M457,375.59a14,14,0,0,1,12.6,7q4.35,7,4.35,18.73t-4.35,18.77a14.91,14.91,0,0,1-25.21,0Q440,413.11,440,401.28t4.36-18.73A14,14,0,0,1,457,375.59Zm-9.48,36.08,16.8-26.3a9.69,9.69,0,0,0-3.48-3.92,7.89,7.89,0,0,0-3.84-1q-5.24,0-8,5.81t-2.71,14.7q0,2,.12,4.38A38.07,38.07,0,0,0,447.5,411.67Zm18.87-20.51-16.64,26.45a10,10,0,0,0,3.09,3.4,7,7,0,0,0,3.89,1.14q5.94,0,8.44-6.64a41.45,41.45,0,0,0,2.5-14.72A36.15,36.15,0,0,0,466.37,391.16Z" style="fill:#fff;stroke:#fff;stroke-miterlimit:10;stroke-width:0.5px"/><path d="M73.78,452.39a14,14,0,0,1,12.6,7q4.35,7,4.35,18.73t-4.35,18.77a14,14,0,0,1-12.6,6.95,14,14,0,0,1-12.62-6.95q-4.35-6.94-4.35-18.77t4.35-18.73A14,14,0,0,1,73.78,452.39ZM64.3,488.47l16.8-26.3a9.69,9.69,0,0,0-3.48-3.92,7.89,7.89,0,0,0-3.84-1q-5.23,0-8,5.81t-2.71,14.7q0,2,.12,4.38A38.07,38.07,0,0,0,64.3,488.47ZM83.17,468,66.53,494.41a10,10,0,0,0,3.09,3.4A7,7,0,0,0,73.51,499q5.94,0,8.44-6.64a41.45,41.45,0,0,0,2.5-14.72A36.15,36.15,0,0,0,83.17,468Z" style="fill:#fff;stroke:#fff;stroke-miterlimit:10;stroke-width:0.5px"/><path d="M110.72,497.49V460.07a49.93,49.93,0,0,1-5.09,3.55,39.5,39.5,0,0,1-6.77,3v-5.24a41.69,41.69,0,0,0,11.86-7.53h5.82v43.64h11.67v4.85H98.86v-4.85Z" style="fill:#fff;stroke:#fff;stroke-miterlimit:10;stroke-width:0.5px"/><path d="M149.12,497.49V460.07a49.93,49.93,0,0,1-5.09,3.55,39.5,39.5,0,0,1-6.77,3v-5.24a41.69,41.69,0,0,0,11.86-7.53h5.82v43.64h11.67v4.85H137.26v-4.85Z" style="fill:#fff;stroke:#fff;stroke-miterlimit:10;stroke-width:0.5px"/><path d="M187.52,497.49V460.07a49.93,49.93,0,0,1-5.09,3.55,39.5,39.5,0,0,1-6.77,3v-5.24a41.83,41.83,0,0,0,11.86-7.53h5.82v43.64H205v4.85H175.66v-4.85Z" style="fill:#fff;stroke:#fff;stroke-miterlimit:10;stroke-width:0.5px"/><path d="M265.38,452.39a14,14,0,0,1,12.6,7q4.35,7,4.35,18.73T278,496.85a14.91,14.91,0,0,1-25.21,0q-4.36-6.94-4.36-18.77t4.36-18.73A14,14,0,0,1,265.38,452.39Zm-9.48,36.08,16.8-26.3a9.69,9.69,0,0,0-3.48-3.92,7.89,7.89,0,0,0-3.84-1q-5.24,0-7.95,5.81t-2.71,14.7q0,2,.12,4.38A38.07,38.07,0,0,0,255.9,488.47ZM274.77,468l-16.64,26.45a10,10,0,0,0,3.09,3.4,7,7,0,0,0,3.89,1.14q5.94,0,8.44-6.64a41.45,41.45,0,0,0,2.5-14.72A36.15,36.15,0,0,0,274.77,468Z" style="fill:#fff;stroke:#fff;stroke-miterlimit:10;stroke-width:0.5px"/><path d="M303.78,452.39a14,14,0,0,1,12.6,7q4.35,7,4.35,18.73t-4.35,18.77a14.91,14.91,0,0,1-25.22,0q-4.35-6.94-4.35-18.77t4.35-18.73A14,14,0,0,1,303.78,452.39Zm-9.48,36.08,16.8-26.3a9.69,9.69,0,0,0-3.48-3.92,7.89,7.89,0,0,0-3.84-1q-5.23,0-7.95,5.81t-2.71,14.7q0,2,.12,4.38A38.07,38.07,0,0,0,294.3,488.47ZM313.17,468l-16.64,26.45a10,10,0,0,0,3.09,3.4,7,7,0,0,0,3.89,1.14q5.94,0,8.44-6.64a41.45,41.45,0,0,0,2.5-14.72A36.15,36.15,0,0,0,313.17,468Z" style="fill:#fff;stroke:#fff;stroke-miterlimit:10;stroke-width:0.5px"/><path d="M340.72,497.49V460.07a49.93,49.93,0,0,1-5.09,3.55,39.5,39.5,0,0,1-6.77,3v-5.24a41.69,41.69,0,0,0,11.86-7.53h5.82v43.64h11.67v4.85H328.86v-4.85Z" style="fill:#fff;stroke:#fff;stroke-miterlimit:10;stroke-width:0.5px"/><path d="M379.12,497.49V460.07a49.93,49.93,0,0,1-5.09,3.55,39.5,39.5,0,0,1-6.77,3v-5.24a41.69,41.69,0,0,0,11.86-7.53h5.82v43.64h11.67v4.85H367.26v-4.85Z" style="fill:#fff;stroke:#fff;stroke-miterlimit:10;stroke-width:0.5px"/><path d="M417.52,497.49V460.07a49.93,49.93,0,0,1-5.09,3.55,39.5,39.5,0,0,1-6.77,3v-5.24a41.83,41.83,0,0,0,11.86-7.53h5.82v43.64H435v4.85H405.66v-4.85Z" style="fill:#fff;stroke:#fff;stroke-miterlimit:10;stroke-width:0.5px"/></svg>