<svg xmlns="http://www.w3.org/2000/svg" viewBox="0 0 500 500"><title>paint-brush</title><rect x="-10.53" y="-10.05" width="519.18" height="522.11" style="fill:#f8982f"/><path d="M357,54c2.5,6-9.5,35.5-49,40.5C234.16,103.85,185,137,143,200c-37.22,55.82-21.5,96-21.5,96,2-.15,4.17-1.26,6.17-1.33C128.3,283.38,135,202.73,201,159.5c0,0-44.5,51-46,99,0,0,32-81,82.5-104.5,0,0-46,42.5-48,83.5,0,0,35-57,95.5-83.5,0,0-19.5,73-38.5,99,0,0,41-21.5,69-84,0,0-2.5,64-42,104,0,0,41-18.5,51-53,0,0-8,40-41,74.5,0,0,33.5-19,59.5-72,0,0-8.5,39-32.5,71,0,0,16.5-13,23.5-22,0,0-16,52.82-91,86.83A26.12,26.12,0,0,1,246.5,370c122-41.5,120.06-179,121-204,1.5-40,19.5-39.5,26-69.5S357,54,357,54Z" style="fill:#fff"/><path d="M238,363.5c-9-18-47.31-60.5-108-63-18-.74-18,18-18,18s90,9,117,72C229,390.5,247,381.5,238,363.5Zm-50-33.82a3,3,0,0,1-2.63,1.55,3,3,0,0,1-1.45-.37,133.53,133.53,0,0,0-35-13.41,3,3,0,0,1,1.14-5.9,137.59,137.59,0,0,1,36.74,14.06A3,3,0,0,1,188,329.68Zm23.2,17.72a3,3,0,0,1-4.24.11,106,106,0,0,0-11.37-9.33,3,3,0,1,1,3.48-4.89,111.52,111.52,0,0,1,12,9.87A3,3,0,0,1,211.18,347.4Z" style="fill:#fff"/><path d="M108,324S45,378-18,486l-9,45,198,9,9-27s36-63,45-117C225,396,204,337.67,108,324Zm35.66,33.05c-.55.61-55.1,61.25-98.42,159.58a9,9,0,1,1-16.48-7.26C73.34,408.19,128,347.48,130.34,344.94a9,9,0,0,1,13.32,12.11Z" style="fill:#fff"/></svg>